# xmcd
#
# Track frame offsets:
#	150
#	16380
#	34843
#	49761
#	69450
#	84597
#	100760
#	117826
#	131876
#	153049
#	168290
#	184270
#	199504
#	215282
#
# Disc length: 3109 seconds
#
# Revision: 0
# Processed by: cddbd v1.5.1PL2 Copyright (c) Steve Scherf et al.
# Submitted via: dBpowerAMP V4.0
#
DISCID=b50c230e
DTITLE=Vanderlei Rodrigo - O Rei da Katchaca
DYEAR=1900
DGENRE=
TTITLE0=Chocolate
TTITLE1=Na hora do adeus
TTITLE2=Y love meu amor
TTITLE3=Alô meu amor
TTITLE4=Meu bombom preferido
TTITLE5=O cachorro, o gato e eu
TTITLE6=Olha nos meus olhos
TTITLE7=Minha loira
TTITLE8=Canção da paz
TTITLE9=Ela é modelo
TTITLE10=Tropeço nela
TTITLE11=Chega de mentira
TTITLE12=Deixa eu te amar
TTITLE13=Adeus amor
EXTD=
EXTT0=
EXTT1=
EXTT2=
EXTT3=
EXTT4=
EXTT5=
EXTT6=
EXTT7=
EXTT8=
EXTT9=
EXTT10=
EXTT11=
EXTT12=
EXTT13=
PLAYORDER=
